<svg height="512pt" viewBox="0 0 512 512" width="512pt" xmlns="http://www.w3.org/2000/svg"><path d="m474.5 0h-437c-20.679688 0-37.5 16.820312-37.5 37.5v167.425781c0 4.140625 3.355469 7.5 7.5 7.5s7.5-3.359375 7.5-7.5v-167.425781c0-12.40625 10.09375-22.5 22.5-22.5h437c12.40625 0 22.5 10.09375 22.5 22.5v437c0 12.40625-10.09375 22.5-22.5 22.5h-77.207031c-4.144531 0-7.5 3.359375-7.5 7.5s3.355469 7.5 7.5 7.5h77.207031c20.679688 0 37.5-16.820312 37.5-37.5v-437c0-20.679688-16.820312-37.5-37.5-37.5zm0 0"/><path d="m362.769531 497h-325.269531c-12.40625 0-22.5-10.09375-22.5-22.5v-235.054688c0-4.140624-3.355469-7.5-7.5-7.5s-7.5 3.359376-7.5 7.5v235.054688c0 20.679688 16.820312 37.5 37.5 37.5h325.269531c4.144531 0 7.5-3.359375 7.5-7.5s-3.359375-7.5-7.5-7.5zm0 0"/><path d="m412.855469 364.355469c3.289062-6.644531 2.539062-14.429688-1.949219-20.328125-.355469-.464844-.765625-.886719-1.21875-1.257813-16.007812-13.09375-29.285156-28.859375-39.464844-46.859375-4.238281-7.496094-5.105468-16.140625-2.441406-24.34375 2.671875-8.226562 8.476562-14.738281 16.347656-18.328125 12.285156-5.601562 17.722656-20.15625 12.117188-32.441406-5.605469-12.285156-20.160156-17.71875-32.441406-12.113281l-13.847657 6.3125c-.109375.054687-.445312.207031-.867187-.0625-.414063-.265625-.414063-.640625-.414063-.757813v-35.578125c0-20.90625-7.207031-41.394531-20.289062-57.695312-2.59375-3.226563-7.3125-3.746094-10.542969-1.152344s-3.746094 7.3125-1.15625 10.542969c11.113281 13.84375 16.988281 30.546875 16.988281 48.304687v35.582032c0 5.4375 2.730469 10.4375 7.308594 13.375 4.570313 2.9375 10.253906 3.347656 15.199219 1.089843l13.847656-6.316406c2.304688-1.050781 4.882812-1.140625 7.253906-.253906 2.375.886719 4.261719 2.644531 5.316406 4.949219 2.167969 4.757812.0625 10.398437-4.695312 12.566406-11.570312 5.28125-20.460938 15.246094-24.390625 27.34375-3.921875 12.070312-2.589844 25.324218 3.652344 36.363281 10.917969 19.304687 25.105469 36.253906 42.179687 50.390625.976563 1.734375.390625 3.351562.066406 4.007812-.359374.730469-1.464843 2.425782-3.90625 2.425782h-13.078124c-10.199219 0-18.625 8.296875-18.78125 18.492187-.015626 1.097657-.714844 2.265625-1.972657 2.265625h-23.457031c-16.375 0-31.609375 6.003906-42.890625 16.902344-8.210937 7.941406-23.117187 12.871094-38.90625 12.871094-15.785156 0-30.695313-4.933594-38.90625-12.871094-11.28125-10.898438-26.511719-16.902344-42.890625-16.902344h-23.453125c-.679687 0-1.136719-.316406-1.398437-.582031-.265626-.265625-.578126-.726563-.574219-1.402344.023437-4.984375-1.90625-9.679687-5.433594-13.222656-3.5625-3.578125-8.300781-5.550781-13.351563-5.550781h-14.621093c-2.203125 0-3.097657-1.578125-3.378907-2.257813-.269531-.648437-.726562-2.273437.601563-3.78125 17.292969-14.214843 31.640625-31.300781 42.664063-50.785156 6.242187-11.039063 7.570312-24.292969 3.648437-36.363281-3.929687-12.097656-12.816406-22.066406-24.390625-27.34375-2.304688-1.050782-4.0625-2.9375-4.949219-5.3125s-.796875-4.949219.257813-7.253906c2.171875-4.761719 7.804687-6.867188 12.566406-4.695313l13.847656 6.316406c4.945313 2.253907 10.628906 1.847657 15.203125-1.089843 4.570313-2.941407 7.304688-7.941407 7.308594-13.378907v-35.578125c0-42.597656 34.652344-77.253906 77.25-77.253906 12.640625 0 24.710937 2.972656 35.863281 8.832031 3.671875 1.929688 8.203125.515625 10.128906-3.148437 1.929688-3.667969.515626-8.203125-3.148437-10.128906-13.144531-6.90625-27.957031-10.554688-42.84375-10.554688-50.867187 0-92.25 41.382812-92.25 92.253906v35.574219c0 .121094 0 .492187-.417969.761719-.417968.269531-.757812.113281-.871094.0625l-13.84375-6.316406c-12.28125-5.601563-26.835937-.167969-32.441406 12.117187-2.714844 5.949219-2.949218 12.601563-.660156 18.726563 2.289062 6.128906 6.824219 11 12.777344 13.710937 7.871094 3.589844 13.675781 10.101563 16.347656 18.332031 2.664062 8.203125 1.796875 16.847656-2.441406 24.34375-10.179688 18-23.457032 33.765625-39.464844 46.855469-.191406.160156-.378906.328125-.554688.503906-5.355468 5.355469-6.941406 13.335938-4.042968 20.332031 2.894531 6.996094 9.664062 11.519532 17.234375 11.519532h14.621093c1.390626 0 2.300782.707031 2.71875 1.125.398438.402344 1.070313 1.273437 1.0625 2.570312-.019531 4.550782 1.734376 8.832032 4.945313 12.058594 3.207031 3.222656 7.480469 5 12.027344 5h23.457031c12.46875 0 23.996094 4.507812 32.464844 12.691406 11.066406 10.695313 29.507812 17.082032 49.332031 17.082032s38.265625-6.386719 49.332031-17.082032c8.46875-8.183594 19.996094-12.691406 32.464844-12.691406h23.453125c9.371094 0 16.828125-7.480469 16.972656-17.035156.03125-2.050782 1.730469-3.71875 3.78125-3.71875h13.078125c7.414063 0 14.0625-4.125 17.351563-10.765625zm0 0"/></svg>