<svg height="512pt" viewBox="0 0 512 512" width="512pt" xmlns="http://www.w3.org/2000/svg"><path d="m342 428.894531h-28.378906c-53.003906 0-96.121094-43.117187-96.121094-96.121093v-40.335938c0-4.140625 3.359375-7.5 7.5-7.5s7.5 3.359375 7.5 7.5v40.335938c0 44.730468 36.390625 81.121093 81.121094 81.121093h28.378906c1.378906 0 2.5-1.121093 2.5-2.5v-42c0-1.378906-1.121094-2.5-2.5-2.5h-22.261719c-22.1875 0-40.238281-18.050781-40.238281-40.238281v-109.050781c0-4.140625 3.359375-7.5 7.5-7.5h55c1.378906 0 2.5-1.121094 2.5-2.5v-42c0-1.378907-1.121094-2.5-2.5-2.5h-55c-4.140625 0-7.5-3.359375-7.5-7.5v-55c0-1.378907-1.121094-2.5-2.5-2.5h-42c-1.378906 0-2.5 1.121093-2.5 2.5 0 34.460937-28.039062 62.5-62.5 62.5-1.378906 0-2.5 1.121093-2.5 2.5v42c0 1.378906 1.121094 2.5 2.5 2.5h55c4.140625 0 7.5 3.359375 7.5 7.5v40.308593c0 4.144532-3.359375 7.5-7.5 7.5s-7.5-3.355468-7.5-7.5v-32.808593h-47.5c-9.648438 0-17.5-7.851563-17.5-17.5v-42c0-9.648438 7.851562-17.5 17.5-17.5 26.191406 0 47.5-21.308594 47.5-47.5 0-9.648438 7.851562-17.5 17.5-17.5h42c9.648438 0 17.5 7.851562 17.5 17.5v47.5h47.5c9.648438 0 17.5 7.851562 17.5 17.5v42c0 9.648437-7.851562 17.5-17.5 17.5h-47.5v101.550781c0 13.914062 11.324219 25.238281 25.238281 25.238281h22.261719c9.648438 0 17.5 7.851563 17.5 17.5v42c0 9.648438-7.851562 17.5-17.5 17.5zm0 0"/><path d="m474.5 512h-84.601562c-4.140626 0-7.5-3.359375-7.5-7.5s3.359374-7.5 7.5-7.5h84.601562c12.40625 0 22.5-10.09375 22.5-22.5v-437c0-12.40625-10.09375-22.5-22.5-22.5h-301.089844c-4.140625 0-7.5-3.359375-7.5-7.5s3.359375-7.5 7.5-7.5h301.089844c20.679688 0 37.5 16.820312 37.5 37.5v437c0 20.679688-16.820312 37.5-37.5 37.5zm0 0"/><path d="m352 512h-314.5c-20.679688 0-37.5-16.820312-37.5-37.5v-437c0-20.679688 16.820312-37.5 37.5-37.5h101.386719c4.140625 0 7.5 3.359375 7.5 7.5s-3.359375 7.5-7.5 7.5h-101.386719c-12.40625 0-22.5 10.09375-22.5 22.5v437c0 12.40625 10.09375 22.5 22.5 22.5h314.5c4.140625 0 7.5 3.359375 7.5 7.5s-3.359375 7.5-7.5 7.5zm0 0"/></svg>