<svg height="512pt" viewBox="0 0 512 512" width="512pt" xmlns="http://www.w3.org/2000/svg"><path d="m248.28125 361.25c27.578125 0 55.199219-9.066406 78.125-27.304688 3.238281-2.578124 3.777344-7.296874 1.199219-10.539062-2.582031-3.238281-7.296875-3.777344-10.539063-1.199219-41.792968 33.253907-101.320312 31.871094-141.5625-3.3125l9.085938-9.085937c10.453125 2.015625 21.335937 3.125 32.398437 3.230468.582031.003907 1.164063.007813 1.746094.007813 30.074219 0 59.367187-7.359375 82.65625-20.789063l.464844-.269531c23.695312-13.871093 33.609375-42.644531 23.570312-68.417969l-.195312-.503906c-.472657-1.214844-.972657-2.410156-1.484375-3.601562.371094.007812.738281.03125 1.109375.03125 11.386719 0 22.097656-2.9375 31.421875-8.085938 6.613281 29.957032.464844 62-17.0625 87.199219-2.363282 3.398437-1.527344 8.074219 1.875 10.441406 1.304687.90625 2.796875 1.339844 4.277344 1.339844 2.371093 0 4.707031-1.121094 6.164062-3.214844 21.132812-30.390625 27.710938-69.527343 17.835938-105.28125 8.601562-8.042969 15.023437-18.375 18.296874-30.015625 11.828126-3.367187 22.019532-8.660156 30.285157-15.816406 4.339843-3.757812 5.964843-9.710938 4.144531-15.160156-1.832031-5.472656-6.730469-9.261719-12.484375-9.65625l-13.019531-.890625c4.773437-6.480469 8.382812-13.324219 10.773437-20.46875 1.816407-5.4375.1875-11.382813-4.160156-15.144531-4.359375-3.777344-10.507813-4.542969-15.65625-1.953126l-21.566406 10.851563c-11.230469-9.144531-25.542969-14.636719-41.125-14.636719-7.875 0-15.59375 1.398438-22.941407 4.160156-3.878906 1.457032-5.839843 5.78125-4.382812 9.65625 1.457031 3.878907 5.78125 5.839844 9.660156 4.382813 5.652344-2.125 11.597656-3.199219 17.667969-3.199219 27.707031 0 50.246094 22.539063 50.246094 50.246094s-22.542969 50.246094-50.246094 50.246094c-3.242187 0-6.46875-.324219-9.625-.9375-8.429687-12.972656-19.613281-23.941406-33.050781-32.289063-1.859375-1.15625-3.753906-2.234375-5.667969-3.265625-1.261719-4.453125-1.90625-9.070312-1.90625-13.753906 0-10.257812 3.082031-20.128906 8.90625-28.546875 2.355469-3.40625 1.507813-8.078125-1.898437-10.4375-3.40625-2.355469-8.078126-1.503906-10.4375 1.898437-3.785157 5.472657-6.675782 11.410157-8.621094 17.652344-.71875-.15625-1.4375-.328125-2.15625-.464844-41.515625-7.972656-80.621094-23.285156-100.230469-31.703124-4.957031-2.128907-10.65625-1.359376-14.878906 2.003906-4.214844 3.363281-6.230469 8.738281-5.265625 14.035156 2.648437 14.476562 7.007812 26.757812 13.199218 37.1875-19.328124-1.070312-35.886718-2.96875-47.015624-4.484375-5.484376-.746094-10.917969 1.574219-14.171876 6.0625-3.246093 4.472656-3.765624 10.335937-1.363281 15.300781 8.078125 16.679688 17.804688 29.5625 29.503907 39l-6.75 2.207032c-4.917969 1.605468-8.609376 5.558593-9.875 10.574218-1.273438 5.035156.105468 10.285156 3.6875 14.050782 9.601562 10.09375 20.738281 17.992187 33.238281 23.597656l-5.265625 3.039062c-4.613282 2.65625-7.414063 7.421875-7.5 12.742188-.085938 5.335937 2.566406 10.199218 7.101562 13.015625 9.792969 6.074219 20.863282 10.992187 32.765625 14.628906l-2.683593 2.679687c-2.921876 2.925782-4.519532 6.972657-4.382813 11.105469.023437.71875.121094 1.429688.246094 2.128907l-50.042969 50.042968c-3.390625 3.390625-4.933594 8.058594-4.230469 12.804688s3.53125 8.765625 7.765625 11.027344l48.285156 25.824218c2.207032 1.179688 4.632813 1.777344 7.070313 1.777344 1.886719 0 3.777344-.359375 5.578125-1.078125 4.125-1.652344 7.285156-5.019531 8.671875-9.238281l19.636719-59.6875c14.386718 5.492187 29.578125 8.257812 44.785156 8.253906zm141.796875-205.957031c.003906-.347657.023437-.691407.023437-1.042969 0-3.171875-.238281-6.292969-.679687-9.347656l17.085937 1.167968c-4.71875 3.769532-10.226562 6.839844-16.429687 9.222657zm2.339844-48.164063c-1.75 4.585938-4.746094 10.460938-9.824219 16.785156-1.660156-3.148437-3.566406-6.148437-5.703125-8.972656zm-237.5 9.585938c20.378906 8.714844 60.214843 24.21875 102.652343 32.367187.738282.140625 1.472657.3125 2.207032.476563-.109375 1.554687-.167969 3.121094-.167969 4.691406 0 2.179688.117187 4.347656.332031 6.503906-13.777344-4.679687-28.410156-6.519531-43.269531-5.328125-15.238281 1.214844-30.425781 1.476563-44.699219 1.175781-8.335937-10.214843-13.929687-23.289062-17.054687-39.886718zm4.339843 151.953125c7.746094 2.054687 28.378907 6.96875 48.609376 6.96875 2.179687 0 4.355468-.058594 6.507812-.183594 4.132812-.238281 7.292969-3.78125 7.058594-7.917969-.238282-4.136718-3.785156-7.292968-7.917969-7.058594-24.179687 1.390626-52.851563-6.976562-53.15625-7.066406-.027344-.007812-.054687-.011718-.082031-.019531-.019532-.003906-.035156-.011719-.050782-.019531-16.382812-4.511719-30.550781-12.964844-42.136718-25.152344l18.527344-6.054688c8.316406 4.0625 32.859374 14.8125 59.679687 14.8125 1.519531 0 3.050781-.035156 4.582031-.105468 4.136719-.195313 7.335938-3.707032 7.140625-7.847656-.195312-4.136719-3.6875-7.332032-7.847656-7.136719-29.796875 1.402343-58.996094-14.21875-59.34375-14.40625-.011719-.007813-.027344-.011719-.042969-.019531-.011718-.007813-.019531-.015626-.027344-.019532-15.027343-7.960937-26.980468-21.425781-36.5625-41.1875 22.832032 3.109375 67.945313 7.777344 113.671876 4.121094 19.96875-1.59375 39.472656 3.117188 56.402343 13.632812 16.960938 10.539063 29.75 25.925782 36.984375 44.5l.195313.503907c7.347656 18.863281.125 39.90625-17.175781 50.03125l-.367188.214843c-44.1875 25.480469-109.179688 25.039063-151.199219-1.046874zm10.351563 139.324219-21.316406-11.398438 21.316406-26.871094c2.574219-3.242187 2.027344-7.960937-1.214844-10.535156-3.25-2.574219-7.964843-2.03125-10.539062 1.214844l-23.003907 29-13.527343-7.230469 48.484375-48.484375c6.308594 5.054688 12.992187 9.421875 19.945312 13.089844zm0 0"/><path d="m332.597656 149.0625c4.125 0 7.476563-3.332031 7.5-7.460938.019532-4.140624-3.316406-7.519531-7.460937-7.539062h-.089844c-.015625 0-.027344 0-.042969 0-4.121094 0-7.429687 3.332031-7.453125 7.460938-.019531 4.140624 3.363281 7.515624 7.507813 7.539062zm0 0"/><path d="m474.5 0h-437c-20.679688 0-37.5 16.820312-37.5 37.5v437c0 20.679688 16.820312 37.5 37.5 37.5h127.886719c4.140625 0 7.5-3.359375 7.5-7.5s-3.359375-7.5-7.5-7.5h-127.886719c-12.40625 0-22.5-10.09375-22.5-22.5v-437c0-12.40625 10.09375-22.5 22.5-22.5h437c12.40625 0 22.5 10.09375 22.5 22.5v437c0 12.40625-10.09375 22.5-22.5 22.5h-270.976562c-4.140626 0-7.5 3.359375-7.5 7.5s3.359374 7.5 7.5 7.5h270.976562c20.679688 0 37.5-16.820312 37.5-37.5v-437c0-20.679688-16.820312-37.5-37.5-37.5zm0 0"/></svg>