<svg height="512pt" viewBox="0 0 512 512" width="512pt" xmlns="http://www.w3.org/2000/svg"><path d="m474.5 0h-75.628906c-4.140625 0-7.5 3.359375-7.5 7.5s3.359375 7.5 7.5 7.5h75.628906c12.40625 0 22.5 10.09375 22.5 22.5v437c0 12.40625-10.09375 22.5-22.5 22.5h-160.113281l-46.011719-46.011719c-3.304688-3.304687-7.699219-5.125-12.375-5.125s-9.070312 1.820313-12.375 5.125l-46.011719 46.011719h-61.226562c-4.144531 0-7.5 3.359375-7.5 7.5s3.355469 7.5 7.5 7.5h338.113281c20.679688 0 37.5-16.820312 37.5-37.5v-437c0-20.679688-16.820312-37.5-37.5-37.5zm-220.269531 461.59375c.976562-.976562 2.5625-.976562 3.539062 0l35.40625 35.40625h-74.351562zm0 0"/><path d="m101.863281 497h-64.363281c-12.40625 0-22.5-10.09375-22.5-22.5v-437c0-12.40625 10.09375-22.5 22.5-22.5h326.851562c4.140626 0 7.5-3.359375 7.5-7.5s-3.359374-7.5-7.5-7.5h-326.851562c-20.679688 0-37.5 16.820312-37.5 37.5v437c0 20.679688 16.820312 37.5 37.5 37.5h64.363281c4.140625 0 7.5-3.359375 7.5-7.5s-3.359375-7.5-7.5-7.5zm0 0"/><path d="m272.699219 185.574219h-33.398438c-4.144531 0-7.5 3.359375-7.5 7.5v33.402343c0 4.140626 3.355469 7.5 7.5 7.5h33.398438c4.144531 0 7.5-3.359374 7.5-7.5v-33.402343c0-4.140625-3.355469-7.5-7.5-7.5zm-7.5 33.402343h-18.398438v-18.398437h18.398438zm0 0"/><path d="m340.300781 200.574219c8.972657 0 16.269531-7.296875 16.269531-16.269531v-18.71875c0-8.972657-7.296874-16.273438-16.269531-16.273438h-23.835937v-23.835938c0-8.972656-7.300782-16.273437-16.273438-16.273437h-18.71875c-8.972656 0-16.273437 7.300781-16.273437 16.273437v23.835938h-18.398438v-23.835938c0-8.972656-7.296875-16.273437-16.269531-16.273437h-18.722656c-8.972656 0-16.269532 7.300781-16.269532 16.273437v23.835938h-23.839843c-8.96875 0-16.269531 7.300781-16.269531 16.273438v18.71875c0 8.972656 7.300781 16.269531 16.269531 16.269531h23.839843v18.402343h-23.839843c-8.96875 0-16.269531 7.296876-16.269531 16.269532v18.722656c0 8.972656 7.300781 16.269531 16.269531 16.269531h23.839843v23.839844c0 8.972656 7.296876 16.269531 16.269532 16.269531h18.722656c8.972656 0 16.269531-7.296875 16.269531-16.269531v-23.839844h18.398438v23.839844c0 8.972656 7.300781 16.269531 16.273437 16.269531h18.71875c8.972656 0 16.273438-7.296875 16.273438-16.269531v-23.839844h23.835937c8.972657 0 16.269531-7.296875 16.269531-16.269531v-18.722656c0-8.96875-7.296874-16.269532-16.269531-16.269532h-23.835937v-18.398437h23.835937zm-31.335937 33.402343h31.335937c.703125 0 1.269531.570313 1.269531 1.269532v18.722656c0 .703125-.566406 1.269531-1.269531 1.269531h-31.335937c-4.144532 0-7.5 3.359375-7.5 7.5v31.339844c0 .699219-.570313 1.269531-1.273438 1.269531h-18.71875c-.703125 0-1.273437-.570312-1.273437-1.269531v-31.339844c0-4.140625-3.355469-7.5-7.5-7.5h-33.398438c-4.140625 0-7.5 3.359375-7.5 7.5v31.339844c0 .699219-.570312 1.269531-1.269531 1.269531h-18.722656c-.699219 0-1.269532-.570312-1.269532-1.269531v-31.339844c0-4.140625-3.359374-7.5-7.5-7.5h-31.339843c-.699219 0-1.269531-.566406-1.269531-1.269531v-18.722656c0-.699219.570312-1.269532 1.269531-1.269532h31.339843c4.140626 0 7.5-3.359374 7.5-7.5v-33.398437c0-4.144531-3.359374-7.5-7.5-7.5h-31.339843c-.699219 0-1.269531-.570313-1.269531-1.273437v-18.71875c0-.703126.570312-1.273438 1.269531-1.273438h31.339843c4.140626 0 7.5-3.355469 7.5-7.5v-31.335938c0-.703124.570313-1.273437 1.269532-1.273437h18.722656c.699219 0 1.269531.570313 1.269531 1.273437v31.335938c0 4.144531 3.359375 7.5 7.5 7.5h33.398438c4.144531 0 7.5-3.355469 7.5-7.5v-31.335938c0-.703124.570312-1.273437 1.273437-1.273437h18.71875c.703125 0 1.273438.570313 1.273438 1.273437v31.335938c0 4.144531 3.355468 7.5 7.5 7.5h31.335937c.703125 0 1.269531.570312 1.269531 1.273438v18.71875c0 .703124-.566406 1.273437-1.269531 1.273437h-31.335937c-4.144532 0-7.5 3.355469-7.5 7.5v33.398437c0 4.140626 3.355468 7.5 7.5 7.5zm0 0"/><path d="m314.121094 393.386719c3.933594-1.300781 6.0625-5.542969 4.761718-9.476563-1.304687-3.933594-5.546874-6.066406-9.480468-4.761718-17.3125 5.738281-35.28125 8.648437-53.402344 8.648437-47.8125 0-93.699219-20.304687-125.882812-55.703125-1.882813-2.070312-2.847657-4.75-2.714844-7.546875.132812-2.796875 1.34375-5.375 3.417968-7.257813 4.273438-3.886718 10.917969-3.570312 14.804688.703126 28.222656 31.039062 68.453125 48.84375 110.375 48.84375s82.152344-17.804688 110.375-48.84375c1.882812-2.070313 4.460938-3.285157 7.253906-3.417969 2.800782-.128907 5.476563.832031 7.550782 2.714843 2.070312 1.882813 3.285156 4.460938 3.417968 7.257813.132813 2.792969-.832031 5.476563-2.714844 7.546875-12.175781 13.390625-26.390624 24.71875-42.246093 33.667969-3.609375 2.035156-4.882813 6.609375-2.847657 10.214843 2.035157 3.609376 6.609376 4.882813 10.21875 2.847657 17.25-9.734375 32.71875-22.0625 45.972657-36.640625 4.578125-5.035156 6.921875-11.550782 6.597656-18.351563-.320313-6.796875-3.273437-13.0625-8.308594-17.640625-5.035156-4.582031-11.558593-6.925781-18.351562-6.601562-6.800781.324218-13.066407 3.273437-17.644531 8.3125-25.382813 27.917968-61.570313 43.933594-99.273438 43.933594-37.707031 0-73.890625-16.015626-99.277344-43.933594-9.449218-10.394532-25.597656-11.164063-35.996094-1.710938-5.035156 4.578125-7.984374 10.84375-8.308593 17.640625-.324219 6.800781 2.019531 13.316407 6.597656 18.351563 35.023437 38.519531 84.953125 60.613281 136.980469 60.613281 19.730468 0 39.285156-3.164063 58.125-9.410156zm0 0"/></svg>