<svg height="512pt" viewBox="0 0 512 512" width="512pt" xmlns="http://www.w3.org/2000/svg"><path d="m474.5 0h-437c-20.679688 0-37.5 16.820312-37.5 37.5v114.453125c0 4.140625 3.359375 7.5 7.5 7.5s7.5-3.359375 7.5-7.5v-114.453125c0-12.40625 10.09375-22.5 22.5-22.5h437c12.40625 0 22.5 10.09375 22.5 22.5v437c0 12.40625-10.09375 22.5-22.5 22.5h-437c-12.40625 0-22.5-10.09375-22.5-22.5v-288.023438c0-4.140624-3.359375-7.5-7.5-7.5s-7.5 3.359376-7.5 7.5v288.023438c0 20.679688 16.820312 37.5 37.5 37.5h437c20.679688 0 37.5-16.820312 37.5-37.5v-437c0-20.679688-16.820312-37.5-37.5-37.5zm0 0"/><path d="m436.84375 232.105469c4.144531 0 7.5-3.359375 7.5-7.5v-55.191407c0-56.109374-45.648438-101.757812-101.757812-101.757812h-173.171876c-56.109374 0-101.757812 45.648438-101.757812 101.757812v173.171876c0 56.109374 45.648438 101.761718 101.757812 101.761718h173.171876c56.109374 0 101.757812-45.652344 101.757812-101.761718v-83.457032c0-4.144531-3.355469-7.5-7.5-7.5-4.140625 0-7.5 3.355469-7.5 7.5v83.457032c0 47.839843-38.917969 86.761718-86.757812 86.761718h-173.171876c-47.839843 0-86.757812-38.921875-86.757812-86.761718v-173.171876c0-47.839843 38.917969-86.757812 86.757812-86.757812h173.171876c47.839843 0 86.757812 38.917969 86.757812 86.757812v55.1875c0 4.144532 3.359375 7.503907 7.5 7.503907zm0 0"/><path d="m277.851562 403.34375h64.734376c33.503906 0 60.757812-27.253906 60.757812-60.757812v-173.171876c0-33.503906-27.253906-60.757812-60.757812-60.757812h-173.171876c-33.503906 0-60.757812 27.253906-60.757812 60.757812v173.171876c0 33.503906 27.253906 60.757812 60.757812 60.757812h73.914063c4.144531 0 7.5-3.355469 7.5-7.5 0-4.140625-3.355469-7.5-7.5-7.5h-73.914063c-25.230468 0-45.757812-20.527344-45.757812-45.757812v-173.171876c0-25.230468 20.527344-45.757812 45.757812-45.757812h173.171876c25.230468 0 45.757812 20.527344 45.757812 45.757812v173.171876c0 25.230468-20.527344 45.757812-45.757812 45.757812h-64.734376c-4.140624 0-7.5 3.359375-7.5 7.5 0 4.144531 3.359376 7.5 7.5 7.5zm0 0"/><path d="m256 164.527344c-50.4375 0-91.472656 41.035156-91.472656 91.472656s41.035156 91.472656 91.472656 91.472656 91.472656-41.035156 91.472656-91.472656-41.035156-91.472656-91.472656-91.472656zm0 167.945312c-42.167969 0-76.472656-34.304687-76.472656-76.472656s34.304687-76.472656 76.472656-76.472656 76.472656 34.304687 76.472656 76.472656-34.304687 76.472656-76.472656 76.472656zm0 0"/><path d="m256 204.335938c-28.488281 0-51.664062 23.175781-51.664062 51.664062s23.175781 51.667969 51.664062 51.667969 51.664062-23.179688 51.664062-51.667969-23.175781-51.664062-51.664062-51.664062zm0 88.328124c-20.21875 0-36.664062-16.445312-36.664062-36.664062s16.445312-36.664062 36.664062-36.664062 36.664062 16.445312 36.664062 36.664062-16.445312 36.664062-36.664062 36.664062zm0 0"/><path d="m370.328125 164c0-13.414062-10.914063-24.328125-24.328125-24.328125s-24.328125 10.914063-24.328125 24.328125 10.914063 24.328125 24.328125 24.328125 24.328125-10.914063 24.328125-24.328125zm-33.65625 0c0-5.144531 4.183594-9.328125 9.328125-9.328125s9.328125 4.183594 9.328125 9.328125-4.1875 9.328125-9.328125 9.328125c-5.144531 0-9.328125-4.183594-9.328125-9.328125zm0 0"/></svg>