<svg height="512pt" viewBox="0 0 512 512" width="512pt" xmlns="http://www.w3.org/2000/svg"><path d="m474.5 512h-437c-20.679688 0-37.5-16.820312-37.5-37.5v-93.035156c0-4.140625 3.355469-7.5 7.5-7.5s7.5 3.359375 7.5 7.5v93.035156c0 12.40625 10.09375 22.5 22.5 22.5h437c12.40625 0 22.5-10.09375 22.5-22.5v-244.527344c0-4.140625 3.355469-7.5 7.5-7.5s7.5 3.359375 7.5 7.5v244.527344c0 20.679688-16.820312 37.5-37.5 37.5zm0 0"/><path d="m7.5 354.441406c-4.144531 0-7.5-3.355468-7.5-7.5v-309.441406c0-20.679688 16.820312-37.5 37.5-37.5h437c20.679688 0 37.5 16.820312 37.5 37.5v157.949219c0 4.144531-3.355469 7.5-7.5 7.5s-7.5-3.355469-7.5-7.5v-157.949219c0-12.40625-10.09375-22.5-22.5-22.5h-437c-12.40625 0-22.5 10.09375-22.5 22.5v309.441406c0 4.144532-3.355469 7.5-7.5 7.5zm0 0"/><path d="m161.554688 428.367188c-13.300782 0-26.15625-7.253907-32.65625-19.871094-9.257813-17.972656-2.167969-40.128906 15.804687-49.386719l41.375-21.308594c1.097656-.566406 1.777344-1.683593 1.777344-2.917969v-187.511718c0-13.414063 9.097656-25.019532 22.128906-28.21875l141.203125-34.683594c8.730469-2.140625 17.789062-.191406 24.863281 5.355469 7.070313 5.542969 11.128907 13.878906 11.128907 22.867187v221.367188c0 .113281-.003907.226562-.007813.34375.203125 13.847656-7.546875 26.820312-19.875 33.171875l-35.410156 18.238281c-8.707031 4.484375-18.636719 5.308594-27.964844 2.324219s-16.9375-9.425781-21.421875-18.132813c-9.257812-17.972656-2.167969-40.125 15.808594-49.386718l41.371094-21.308594c1.097656-.566406 1.777343-1.683594 1.777343-2.917969v-113.371094c0-1.390625-.785156-2.214843-1.253906-2.582031-.472656-.367188-1.460937-.933594-2.804687-.601562l-101.328126 24.886718c-1.472656.359375-2.496093 1.667969-2.496093 3.183594v56.441406c0 4.144532-3.359375 7.5-7.5 7.5-4.144531 0-7.5-3.355468-7.5-7.5v-56.441406c0-8.4375 5.722656-15.738281 13.917969-17.75l101.328124-24.890625c5.488282-1.347656 11.1875-.121094 15.636719 3.371094 4.449219 3.488281 7 8.730469 7 14.382812v113.371094c0 6.875-3.796875 13.101563-9.90625 16.25l-41.375 21.3125c-10.621093 5.472656-14.8125 18.5625-9.339843 29.183594 2.648437 5.144531 7.144531 8.949219 12.65625 10.710937 5.515624 1.765625 11.378906 1.277344 16.523437-1.371094l35.410156-18.238281c7.390625-3.808593 11.996094-11.640625 11.738281-19.957031-.007812-.25-.003906-.5.011719-.75v-220.84375c0-4.347656-1.960937-8.378906-5.382812-11.0625-3.421875-2.679688-7.804688-3.625-12.027344-2.589844l-141.207031 34.683594c-6.300782 1.546875-10.703125 7.164062-10.703125 13.652344v187.511718c0 6.875-3.796875 13.101563-9.910157 16.25l-41.375 21.3125c-10.621093 5.46875-14.808593 18.5625-9.339843 29.183594 5.472656 10.617188 18.5625 14.808594 29.183593 9.339844l35.40625-18.238281c7.390626-3.804688 12-11.640625 11.738282-19.957031-.007813-.246094-.003906-.492188.015625-.734376v-73.167968c0-4.140625 3.355469-7.5 7.5-7.5 4.140625 0 7.5 3.359375 7.5 7.5v73.679687c0 .109375-.003907.21875-.007813.328125.210938 13.851563-7.542968 26.835938-19.875 33.1875l-35.410156 18.238282c-5.351562 2.757812-11.082031 4.0625-16.726562 4.0625zm0 0"/></svg>