<svg height="512pt" viewBox="0 0 512 512" width="512pt" xmlns="http://www.w3.org/2000/svg"><path d="m229.117188 368.90625c-14.335938 0-26.003907-11.667969-26.003907-26.003906v-103.664063c0-14.339843 11.667969-26.003906 26.003907-26.003906 14.339843 0 26.003906 11.667969 26.003906 26.003906v103.664063c0 14.335937-11.664063 26.003906-26.003906 26.003906zm0-140.671875c-6.066407 0-11.003907 4.9375-11.003907 11.003906v103.660157c0 6.070312 4.9375 11.003906 11.003907 11.003906 6.070312 0 11.003906-4.933594 11.003906-11.003906v-103.660157c0-6.066406-4.933594-11.003906-11.003906-11.003906zm0 0"/><path d="m76.976562 368.90625c-14.339843 0-26.003906-11.667969-26.003906-26.003906v-173.804688c0-14.335937 11.664063-26.003906 26.003906-26.003906 14.339844 0 26.003907 11.667969 26.003907 26.003906v22.917969c0 4.140625-3.355469 7.5-7.5 7.5-4.140625 0-7.5-3.359375-7.5-7.5v-22.917969c0-6.066406-4.933594-11.003906-11.003907-11.003906-6.066406 0-11.003906 4.9375-11.003906 11.003906v173.804688c0 6.066406 4.9375 11.003906 11.003906 11.003906 6.070313 0 11.003907-4.9375 11.003907-11.003906v-19.929688c0-1.988281.792969-3.898437 2.199219-5.304687l15.519531-15.519531c1.40625-1.410157 3.3125-2.199219 5.304687-2.199219 1.988282 0 3.894532.789062 5.304688 2.199219l40.871094 40.871093c4.289062 4.289063 11.269531 4.289063 15.558593 0 2.082031-2.082031 3.226563-4.84375 3.226563-7.78125 0-2.941406-1.144532-5.703125-3.222656-7.78125l-40.875-40.871093c-2.925782-2.929688-2.925782-7.679688 0-10.605469l27.074218-27.074219c4.292969-4.292969 4.292969-11.273438 0-15.5625-4.289062-4.289062-11.269531-4.292969-15.558594 0l-42.597656 42.59375c-2.144531 2.144531-5.371094 2.789062-8.175781 1.625-2.800781-1.160156-4.628906-3.894531-4.628906-6.925781v-44.097657c0-4.140624 3.359375-7.5 7.5-7.5 4.144531 0 7.5 3.359376 7.5 7.5v25.988282l29.792969-29.792969c10.140624-10.136719 26.636718-10.136719 36.777343 0 10.136719 10.140625 10.136719 26.636719 0 36.777344l-21.773437 21.769531 35.570312 35.570312c4.910156 4.910157 7.613282 11.4375 7.613282 18.386719 0 6.945313-2.703126 13.476563-7.613282 18.386719-10.144531 10.140625-26.636718 10.140625-36.777344 0l-35.566406-35.566406-8.023437 8.019531v16.824219c0 14.335937-11.664063 26.003906-26.003907 26.003906zm0 0"/><path d="m296.292969 368.90625c-14.339844 0-26.003907-11.667969-26.003907-26.003906v-173.804688c0-14.335937 11.664063-26.003906 26.003907-26.003906 14.339843 0 26.003906 11.667969 26.003906 26.003906v83.429688l29.792969-29.792969c10.140625-10.140625 26.636718-10.136719 36.773437 0 10.140625 10.140625 10.140625 26.636719 0 36.777344l-21.769531 21.769531 35.566406 35.566406c10.140625 10.140625 10.140625 26.636719 0 36.777344s-26.632812 10.136719-36.773437 0l-35.566407-35.570312-8.023437 8.023437v16.824219c0 14.335937-11.664063 26.003906-26.003906 26.003906zm0-210.8125c-6.066407 0-11.003907 4.9375-11.003907 11.003906v173.804688c0 6.066406 4.9375 11.003906 11.003907 11.003906 6.066406 0 11.003906-4.9375 11.003906-11.003906v-19.929688c0-1.988281.789063-3.898437 2.195313-5.304687l15.523437-15.519531c1.40625-1.410157 3.3125-2.199219 5.300781-2.199219 1.992188 0 3.898438.789062 5.304688 2.199219l40.871094 40.871093c4.289062 4.289063 11.273437 4.289063 15.5625 0 4.292968-4.292969 4.292968-11.273437 0-15.566406l-40.871094-40.867187c-2.929688-2.929688-2.929688-7.679688 0-10.609376l27.074218-27.074218c4.292969-4.289063 4.292969-11.269532 0-15.5625-4.289062-4.289063-11.273437-4.289063-15.5625 0l-42.59375 42.597656c-2.148437 2.144531-5.371093 2.785156-8.175781 1.625-2.804687-1.160156-4.628906-3.894531-4.628906-6.929688v-101.535156c0-6.066406-4.9375-11.003906-11.003906-11.003906zm0 0"/><path d="m435.042969 307.144531c-14.324219 0-25.980469-11.65625-25.980469-25.984375 0-14.324218 11.65625-25.980468 25.980469-25.980468 14.328125 0 25.984375 11.65625 25.984375 25.980468 0 14.328125-11.65625 25.984375-25.984375 25.984375zm0-36.96875c-6.054688 0-10.980469 4.929688-10.980469 10.984375 0 6.054688 4.925781 10.984375 10.980469 10.984375 6.058593 0 10.984375-4.929687 10.984375-10.984375 0-6.054687-4.925782-10.984375-10.984375-10.984375zm0 0"/><path d="m152.78125 512h-115.28125c-20.679688 0-37.5-16.820312-37.5-37.5v-437c0-20.679688 16.820312-37.5 37.5-37.5h325.269531c4.144531 0 7.5 3.359375 7.5 7.5s-3.355469 7.5-7.5 7.5h-325.269531c-12.40625 0-22.5 10.09375-22.5 22.5v437c0 12.40625 10.09375 22.5 22.5 22.5h115.28125c4.140625 0 7.5 3.359375 7.5 7.5s-3.359375 7.5-7.5 7.5zm0 0"/><path d="m474.5 512h-287.195312c-4.144532 0-7.5-3.359375-7.5-7.5s3.355468-7.5 7.5-7.5h287.195312c12.40625 0 22.5-10.09375 22.5-22.5v-437c0-12.40625-10.09375-22.5-22.5-22.5h-75.601562c-4.140626 0-7.5-3.359375-7.5-7.5s3.359374-7.5 7.5-7.5h75.601562c20.679688 0 37.5 16.820312 37.5 37.5v437c0 20.679688-16.820312 37.5-37.5 37.5zm0 0"/></svg>