<svg height="512pt" viewBox="0 0 512 512" width="512pt" xmlns="http://www.w3.org/2000/svg"><path d="m474.5 512h-437c-20.679688 0-37.5-16.820312-37.5-37.5v-101.558594c0-4.144531 3.359375-7.5 7.5-7.5s7.5 3.355469 7.5 7.5v101.558594c0 12.40625 10.09375 22.5 22.5 22.5h437c12.40625 0 22.5-10.09375 22.5-22.5v-437c0-12.40625-10.09375-22.5-22.5-22.5h-437c-12.40625 0-22.5 10.09375-22.5 22.5v300.917969c0 4.140625-3.359375 7.5-7.5 7.5s-7.5-3.359375-7.5-7.5v-300.917969c0-20.679688 16.820312-37.5 37.5-37.5h437c20.679688 0 37.5 16.820312 37.5 37.5v437c0 20.679688-16.820312 37.5-37.5 37.5zm0 0"/><path d="m256 431.230469c-7.96875 0-15.9375-2.722657-22.4375-8.171875-19.207031-16.09375-47.058594-42.492188-70.695312-76.875-29.234376-42.527344-44.058594-85.664063-44.058594-128.214844 0-75.644531 61.542968-137.191406 137.191406-137.191406 28.132812 0 55.179688 8.464844 78.214844 24.476562 3.398437 2.363282 4.242187 7.039063 1.875 10.441406-2.363282 3.398438-7.035156 4.242188-10.4375 1.875-20.511719-14.257812-44.59375-21.792968-69.652344-21.792968-67.375 0-122.191406 54.816406-122.191406 122.191406 0 30.648438 10.660156 110.863281 109.386718 193.59375 7.421876 6.214844 18.1875 6.214844 25.609376 0 13.445312-11.269531 33.519531-29.707031 52.78125-53.554688 2.605468-3.226562 7.324218-3.726562 10.546874-1.125 3.222657 2.605469 3.726563 7.328126 1.125 10.546876-20.023437 24.789062-40.863281 43.933593-54.820312 55.628906-6.5 5.445312-14.46875 8.171875-22.4375 8.171875zm0 0"/><path d="m347.945312 341.925781c-1.394531 0-2.804687-.390625-4.058593-1.199219-3.480469-2.246093-4.484375-6.886718-2.238281-10.367187 24.25-37.585937 36.542968-75.398437 36.542968-112.390625 0-28.644531-10.117187-56.492188-28.492187-78.421875-2.660157-3.175781-2.242188-7.90625.933593-10.566406 3.171876-2.660157 7.902344-2.242188 10.5625.933593 20.632813 24.625 31.996094 55.894532 31.996094 88.058594 0 39.921875-13.101562 80.472656-38.9375 120.519532-1.4375 2.222656-3.847656 3.433593-6.308594 3.433593zm0 0"/><path d="m256 293.984375c-46.523438 0-84.371094-37.847656-84.371094-84.371094 0-46.523437 37.847656-84.375 84.371094-84.375s84.371094 37.851563 84.371094 84.375c0 46.523438-37.847656 84.371094-84.371094 84.371094zm0-153.746094c-38.253906 0-69.371094 31.121094-69.371094 69.375 0 38.25 31.117188 69.371094 69.371094 69.371094s69.371094-31.121094 69.371094-69.371094c0-38.253906-31.117188-69.375-69.371094-69.375zm0 0"/><path d="m243.003906 220.367188c-16.480468 0-29.886718-13.410157-29.886718-29.890626 0-16.480468 13.40625-29.886718 29.886718-29.886718 16.480469 0 29.886719 13.40625 29.886719 29.886718 0 16.480469-13.40625 29.890626-29.886719 29.890626zm0-44.777344c-8.207031 0-14.886718 6.679687-14.886718 14.886718 0 8.210938 6.679687 14.890626 14.886718 14.890626 8.210938 0 14.886719-6.679688 14.886719-14.890626 0-8.207031-6.675781-14.886718-14.886719-14.886718zm0 0"/></svg>