<svg height="512pt" viewBox="0 0 512 512" width="512pt" xmlns="http://www.w3.org/2000/svg"><path d="m243.804688 512h-206.304688c-20.679688 0-37.5-16.820312-37.5-37.5v-437c0-20.679688 16.820312-37.5 37.5-37.5h437c20.679688 0 37.5 16.820312 37.5 37.5v92.429688c0 4.140624-3.355469 7.5-7.5 7.5s-7.5-3.359376-7.5-7.5v-92.429688c0-12.40625-10.09375-22.5-22.5-22.5h-437c-12.40625 0-22.5 10.09375-22.5 22.5v437c0 12.40625 10.09375 22.5 22.5 22.5h206.304688c4.140624 0 7.5 3.359375 7.5 7.5s-3.359376 7.5-7.5 7.5zm0 0"/><path d="m474.5 512h-196.175781c-4.140625 0-7.5-3.359375-7.5-7.5s3.359375-7.5 7.5-7.5h196.175781c12.40625 0 22.5-10.09375 22.5-22.5v-310.050781c0-4.140625 3.355469-7.5 7.5-7.5s7.5 3.359375 7.5 7.5v310.050781c0 20.679688-16.820312 37.5-37.5 37.5zm0 0"/><path d="m336.3125 434.46875c-24.558594 0-47.800781-8.988281-65.898438-25.417969-38.65625 3.636719-76.699218-7.207031-107.519531-30.722656-3.292969-2.511719-3.925781-7.21875-1.414062-10.511719 2.515625-3.289062 7.21875-3.925781 10.511719-1.414062 28.644531 21.855468 64.226562 31.578125 100.1875 27.378906 2.25-.261719 4.488281.503906 6.105468 2.082031 15.742188 15.351563 36.578125 23.722657 58.53125 23.601563 22.019532-.128906 42.726563-8.777344 58.296875-24.351563 15.574219-15.574219 24.222657-36.277343 24.355469-58.296875.128906-22.003906-8.253906-42.789062-23.605469-58.53125-1.578125-1.621094-2.339843-3.863281-2.078125-6.105468 4.953125-42.449219-9.511718-84.097657-39.6875-114.273438-30.175781-30.175781-71.820312-44.640625-114.277344-39.6875-2.238281.265625-4.484374-.503906-6.101562-2.082031-15.742188-15.347657-36.566406-23.746094-58.53125-23.601563-22.023438.128906-42.726562 8.777344-58.300781 24.351563s-24.222657 36.277343-24.351563 58.296875c-.128906 22.003906 8.253906 42.789062 23.605469 58.535156 1.574219 1.617188 2.339844 3.859375 2.078125 6.101562-4.332031 37.132813 6.683594 74.960938 30.226562 103.792969 2.617188 3.207031 2.144532 7.933594-1.066406 10.550781-3.207031 2.621094-7.933594 2.144532-10.554687-1.0625-25.351563-31.046874-37.601563-71.507812-33.871094-111.511718-16.5625-18.246094-25.5625-41.714844-25.417969-66.492188.152344-25.996094 10.363282-50.433594 28.746094-68.816406s42.820312-28.589844 68.816406-28.746094h.59375c24.554688 0 47.796875 8.988282 65.894532 25.414063 45.8125-4.3125 90.511718 11.742187 123.117187 44.351562 32.609375 32.605469 48.660156 77.304688 44.347656 123.117188 16.5625 18.242187 25.5625 41.710937 25.414063 66.488281-.152344 25.996094-10.359375 50.433594-28.742188 68.816406-18.382812 18.382813-42.824218 28.589844-68.816406 28.746094-.199219-.003906-.398438-.003906-.59375 0zm0 0"/><path d="m256.976562 371.855469c-40.007812 0-72.8125-16.207031-87.757812-43.355469-3.929688-7.132812-4.84375-15.722656-2.507812-23.5625 2.285156-7.671875 7.359374-13.929688 14.285156-17.613281 7.023437-3.734375 15.078125-4.507813 22.6875-2.171875 7.601562 2.332031 13.839844 7.492187 17.5625 14.523437 2.324218 4.390625 12.785156 12.703125 35.730468 12.703125 11.707032 0 21.953126-2.148437 28.851563-6.050781 5.46875-3.09375 7.414063-6.425781 7.414063-8.515625 0-1.128906-1.097657-2.699219-2.933594-4.199219-8.679688-7.085937-21.898438-7.484375-33.5625-7.839843-19.835938-.597657-45.3125-3.117188-66.40625-17.386719-19.425782-13.140625-30.121094-32.386719-30.121094-54.191407 0-21.230468 10.644531-41.203124 29.210938-54.800781 17.1875-12.585937 40.191406-19.238281 66.53125-19.238281 40.007812 0 72.8125 16.207031 87.757812 43.351562 3.929688 7.136719 4.84375 15.722657 2.507812 23.5625-2.285156 7.675782-7.359374 13.929688-14.285156 17.613282-7.027344 3.734375-15.082031 4.507812-22.683594 2.175781-7.605468-2.335937-13.84375-7.492187-17.566406-14.523437-2.324218-4.394532-12.785156-12.703126-35.730468-12.703126-11.707032 0-21.953126 2.148438-28.851563 6.050782-5.464844 3.089844-7.414063 6.425781-7.414063 8.511718 0 1.164063 1.148438 2.777344 3.078126 4.316407 8.8125 7.027343 20.867187 7.382812 33.632812 7.757812 2.609375.078125 5.308594.15625 7.9375.300781 24.171875 1.308594 43.226562 6.886719 58.253906 17.054688 19.425782 13.140625 30.125 32.386719 30.125 54.191406 0 21.230469-10.648437 41.203125-29.214844 54.800782-17.1875 12.582031-40.195312 19.238281-66.53125 19.238281zm-62.035156-73.019531c-2.382812 0-4.742187.582031-6.902344 1.730468-3.355468 1.785156-5.820312 4.855469-6.953124 8.648438-1.195313 4.019531-.730469 8.410156 1.273437 12.050781 12.265625 22.285156 40.160156 35.585937 74.617187 35.585937 23.128907 0 43.070313-5.652343 57.667969-16.339843 14.664063-10.742188 23.074219-26.304688 23.074219-42.703125 0-16.667969-8.355469-31.5-23.527344-41.765625-12.710937-8.597657-29.28125-13.34375-50.660156-14.5-2.445312-.132813-4.933594-.207031-7.566406-.285157-13.980469-.414062-29.824219-.878906-42.546875-11.027343-5.707031-4.554688-8.722657-10.097657-8.722657-16.039063 0-8.304687 5.476563-16.167968 15.03125-21.570312 9.242188-5.230469 21.773438-7.992188 36.234376-7.992188 28.046874 0 43.695312 10.6875 48.988281 20.6875 1.84375 3.484375 4.9375 6.039063 8.703125 7.195313 3.773437 1.15625 7.761718.773437 11.242187-1.078125 3.355469-1.78125 5.824219-4.855469 6.953125-8.648438 1.195313-4.015625.734375-8.40625-1.269531-12.046875-12.269531-22.285156-40.164063-35.585937-74.617187-35.585937-23.128907 0-43.070313 5.648437-57.667969 16.339844-14.664063 10.742187-23.078125 26.304687-23.078125 42.699218 0 16.671875 8.355468 31.503906 23.527344 41.769532 17.902343 12.109374 40.644531 14.28125 58.457031 14.816406 13.351562.40625 29.96875.90625 42.59375 11.214844 5.527343 4.511718 8.449219 9.980468 8.449219 15.816406 0 8.308594-5.480469 16.167968-15.03125 21.574218-9.246094 5.226563-21.773438 7.992188-36.234376 7.992188-28.050781 0-43.699218-10.6875-48.992187-20.6875-1.84375-3.484375-4.933594-6.042969-8.703125-7.199219-1.425781-.433593-2.886719-.652343-4.339844-.652343zm0 0"/></svg>